<svg xmlns="http://www.w3.org/2000/svg" width="48" height="30" viewBox="0 0 48 30" fill="none"><path d="M47.4215 28.4212V1.5791L33.2109 15.0019L47.4215 28.4212Z" fill="#082440"></path><path d="M0.579102 1.5791V28.4212L14.7896 15.0007L0.579102 1.5791Z" fill="#082440"></path><path d="M31.678 14.697L46.3687 0.526367H1.63184L24.0044 22.1053L31.678 14.697Z" fill="#082440"></path><path d="M32.161 15.7896L24.4877 23.1819C24.437 23.2296 24.3798 23.2697 24.318 23.3011C24.2322 23.3457 24.1383 23.3717 24.0421 23.3775C24.028 23.3775 24.015 23.3775 24.0008 23.3775C23.9867 23.3775 23.969 23.3775 23.9525 23.3775C23.9249 23.3769 23.8973 23.3745 23.87 23.3703C23.8476 23.3703 23.8264 23.3572 23.8052 23.3512C23.7839 23.3453 23.7639 23.3405 23.7438 23.3333C23.7025 23.3169 23.663 23.2961 23.626 23.2713C23.5867 23.2469 23.5504 23.2181 23.5175 23.1855L15.8395 15.7931L1.63184 29.4738H46.3687L32.161 15.7931V15.7896Z" fill="#082440"></path></svg>