<svg width="96" height="80" viewBox="0 0 96 80" fill="none" xmlns="http://www.w3.org/2000/svg">
<mask id="mask0_7262_501" style="mask-type:alpha" maskUnits="userSpaceOnUse" x="0" y="0" width="96" height="80">
<path d="M96 0H50.944V45.92H66.864C66.864 58.628 62.659 67.87 54.549 73.935V80H81.883C91.194 71.047 96 58.628 96 43.321V0ZM45.056 0H0V45.92H15.92C15.92 58.628 11.714 67.87 3.604 73.935V80H30.938C40.25 71.047 45.056 58.628 45.056 43.321V0Z" fill="#00196E"/>
</mask>
<g mask="url(#mask0_7262_501)">
<path d="M-76.2841 46.8995L-75.3772 45.9945L57.2618 178.238L56.3548 179.142L-76.2852 46.8985L-76.2841 46.8995ZM-73.5632 44.1855L-72.6562 43.2815L59.9839 175.525L59.0759 176.429L-73.5632 44.1855ZM-70.8422 41.4725L-69.9352 40.5685L62.7048 172.812L61.7968 173.716L-70.8422 41.4725ZM-68.1202 38.7595L-67.2141 37.8555L65.4258 170.099L64.5179 171.003L-68.1202 38.7595ZM-65.4002 36.0465L-64.4931 35.1425L68.1469 167.386L67.2388 168.29L-65.4002 36.0465ZM-62.6792 33.3335L-61.7722 32.4295L70.8678 164.673L69.9608 165.577L-62.6792 33.3335ZM-59.9582 30.6205L-59.0512 29.7165L73.5898 161.96L72.6828 162.864L-59.9582 30.6205ZM-57.2362 27.9075L-56.3292 27.0035L76.3098 159.247L75.4028 160.151L-57.2362 27.9075ZM-54.5152 25.1945L-53.6082 24.2905L79.0298 156.534L78.1228 157.438L-54.5172 25.1945H-54.5152ZM-51.7942 22.4815L-50.8872 21.5775L81.7518 153.821L80.8448 154.725L-51.7942 22.4815ZM-49.0732 19.7695L-48.1662 18.8645L84.4728 151.108L83.5659 152.012L-49.0742 19.7685L-49.0732 19.7695ZM-46.3522 17.0555L-45.4452 16.1515L87.1949 148.395L86.2868 149.299L-46.3522 17.0555ZM-43.6312 14.3425L-42.7242 13.4385L89.9158 145.682L89.0078 146.586L-43.6312 14.3425ZM-40.9102 11.6295L-40.0032 10.7255L92.6368 142.969L91.7289 143.873L-40.9102 11.6295ZM-38.1892 8.91648L-37.2822 8.01248L95.3578 140.256L94.4498 141.16L-38.1892 8.91648ZM-35.4682 6.20348L-34.5612 5.29948L98.0798 137.543L97.1729 138.447L-35.4682 6.20348ZM-32.7472 3.49048L-31.8402 2.58648L100.8 134.83L99.8929 135.734L-32.7472 3.49048ZM-30.0262 0.777481L-29.1182 -0.126518L103.52 132.117L102.613 133.021L-30.0262 0.777481ZM-27.3042 -1.93552L-26.3972 -2.83952L106.242 129.404L105.335 130.308L-27.3042 -1.93552ZM-24.5832 -4.64852L-23.6762 -5.55252L108.963 126.691L108.056 127.595L-24.5832 -4.64852ZM-21.8622 -7.36052L-20.9552 -8.26552L111.684 123.979L110.777 124.883L-21.8632 -7.36152L-21.8622 -7.36052ZM-19.1412 -10.0735L-18.2342 -10.9785L114.405 121.265L113.498 122.169L-19.1422 -10.0745L-19.1412 -10.0735ZM-16.4202 -12.7875L-15.5132 -13.6915L117.126 118.552L116.219 119.456L-16.4202 -12.7875ZM-13.6992 -15.5005L-12.7922 -16.4045L119.847 115.839L118.94 116.743L-13.6992 -15.5005ZM-8.25716 -20.9255L-7.35015 -21.8305L125.29 110.413L124.383 111.317L-8.25716 -20.9255ZM-10.9781 -18.2125L-10.0712 -19.1175L122.568 113.126L121.661 114.03L-10.9781 -18.2125ZM-5.53616 -23.6395L-4.62915 -24.5435L128.011 107.7L127.104 108.604L-5.53616 -23.6395ZM-2.81416 -26.3525L-1.90715 -27.2565L130.732 104.987L129.825 105.891L-2.81516 -26.3515L-2.81416 -26.3525ZM-0.0931549 -29.0645L0.81385 -29.9695L133.453 102.274L132.546 103.178L-0.0931549 -29.0645ZM2.62785 -31.7775L3.53485 -32.6825L136.174 99.5615L135.267 100.465L2.62785 -31.7775ZM5.34885 -34.4905L6.25584 -35.3955L138.895 96.8495L137.988 97.7535L5.34885 -34.4905ZM8.06985 -37.2035L8.97684 -38.1085L141.616 94.1355L140.709 95.0395L8.06985 -37.2035ZM10.7908 -39.9165L11.6978 -40.8215L144.337 91.4225L143.43 92.3265L10.7908 -39.9165ZM13.5118 -42.6305L14.4188 -43.5345L147.058 88.7095L146.151 89.6135L13.5118 -42.6305ZM16.2328 -45.3425L17.1398 -46.2475L149.78 85.9965L148.873 86.9005L16.2328 -45.3425ZM18.9538 -48.0555L19.8608 -48.9605L152.501 83.2835L151.594 84.1875L18.9538 -48.0555ZM21.6749 -50.7685L22.5818 -51.6735L155.222 80.5705L154.315 81.4745L21.6749 -50.7685ZM24.3958 -53.4815L25.3038 -54.3865L157.943 77.8575L157.036 78.7615L24.3958 -53.4815ZM27.1178 -56.1945L28.0248 -57.0995L160.664 75.1445L159.757 76.0485L27.1178 -56.1945ZM29.8389 -58.9075L30.7458 -59.8125L163.385 72.4315L162.478 73.3355L29.8378 -58.9075H29.8389ZM32.5598 -61.6205L33.4668 -62.5255L166.106 69.7195L165.199 70.6235L32.5598 -61.6205ZM35.2798 -64.3335L36.1879 -65.2385L168.827 67.0055L167.92 67.9095L35.2798 -64.3335ZM38.0018 -67.0465L38.9088 -67.9515L171.548 64.2925L170.641 65.1965L38.0018 -67.0465ZM40.7228 -69.7605L41.6299 -70.6645L174.27 61.5795L173.363 62.4835L40.7228 -69.7585V-69.7605ZM43.4438 -72.4725L44.3508 -73.3775L176.99 58.8665L176.083 59.7715L43.4438 -72.4725ZM46.1648 -75.1855L47.0718 -76.0905L179.712 56.1535L178.805 57.0575L46.1648 -75.1855ZM48.8858 -77.8985L49.7928 -78.8025L182.433 53.4395L181.526 54.3435L48.8858 -77.8985ZM51.6078 -80.6115L52.5148 -81.5155L185.154 50.7265L184.247 51.6305L51.6068 -80.6105L51.6078 -80.6115ZM54.3288 -83.3245L55.2358 -84.2285L187.875 48.0135L186.968 48.9175L54.3279 -83.3235L54.3288 -83.3245Z" fill="#D5FC25"/>
</g>
</svg>
