<svg xmlns="http://www.w3.org/2000/svg" width="41" height="41" viewBox="0 0 41 41" fill="none"><path d="M40.3692 30.4355L24.5542 28.1582C24.0319 29.1561 23.7173 30.2497 23.6295 31.3726C23.6198 31.4881 23.5831 31.5997 23.5223 31.6985C23.4616 31.7972 23.3785 31.8803 23.2797 31.941C23.181 32.0017 23.0693 32.0383 22.9538 32.048C22.8383 32.0576 22.7221 32.04 22.6147 31.9965C19.5623 30.7481 16.7894 28.9038 14.4581 26.5713C14.445 26.559 14.4326 26.5466 14.4211 26.5343C12.0892 24.2026 10.2449 21.4299 8.99573 18.378C8.95224 18.2706 8.93462 18.1544 8.94427 18.0389C8.95392 17.9234 8.99057 17.8117 9.05129 17.713C9.112 17.6142 9.19507 17.5311 9.2938 17.4704C9.39253 17.4096 9.50414 17.3729 9.61966 17.3632C10.7436 17.2765 11.8382 16.9618 12.8367 16.4385L10.5555 0.617843C10.2465 0.559501 9.93448 0.518338 9.62089 0.494543C9.39771 0.476048 9.16714 0.466187 8.93162 0.466187C6.6872 0.468798 4.53546 1.3616 2.94853 2.94872C1.3616 4.53583 0.469081 6.68762 0.466797 8.93197C0.466635 13.082 1.28395 17.1915 2.87208 21.0257C4.46022 24.8599 6.78806 28.3437 9.72269 31.2782C12.6573 34.2128 16.1413 36.5405 19.9756 38.1286C23.8099 39.7167 27.9194 40.534 32.0696 40.5339C34.3139 40.5316 36.4657 39.639 38.0526 38.0521C39.6396 36.4652 40.5322 34.3135 40.5345 32.0693C40.5345 31.8338 40.5258 31.6032 40.5073 31.3825C40.4791 31.0645 40.433 30.7483 40.3692 30.4355Z" fill="#082440"></path></svg>