<svg xmlns="http://www.w3.org/2000/svg" width="31" height="41" viewBox="0 0 31 41" fill="none"><path d="M15.5039 0.590881C11.5439 0.590559 7.74593 2.13762 4.94512 4.89183C2.14431 7.64605 0.569995 11.3819 0.568359 15.2779C0.568359 23.3922 15.5039 40.9621 15.5039 40.9621C15.5039 40.9621 30.432 23.3922 30.432 15.2779C30.432 11.3827 28.8592 7.64699 26.0596 4.89263C23.2601 2.13828 19.4631 0.590881 15.5039 0.590881ZM15.5039 23.4177C13.869 23.4177 12.2709 22.9408 10.9115 22.0472C9.55221 21.1535 8.49273 19.8834 7.8671 18.3974C7.24147 16.9114 7.07778 15.2762 7.39672 13.6987C7.71567 12.1211 8.50293 10.6721 9.65895 9.5347C10.815 8.39735 12.2878 7.62278 13.8913 7.30899C15.4947 6.99519 17.1567 7.15625 18.6671 7.77178C20.1775 8.38731 21.4685 9.42968 22.3768 10.7671C23.2851 12.1044 23.7699 13.6768 23.7699 15.2852C23.7699 17.4421 22.899 19.5106 21.3488 21.0358C19.7986 22.5609 17.6962 23.4177 15.5039 23.4177Z" fill="#082440"></path></svg>